<svg width="850" height="600" viewBox="0 0 850 600" fill="none" xmlns="http://www.w3.org/2000/svg">
<g clip-path="url(#clip0_41_109)">
<circle cx="600" cy="225" r="125" fill="url(#paint0_linear_41_109)"/>
<circle cy="271" r="200" fill="url(#paint1_linear_41_109)"/>
<circle cx="850" cy="271" r="200" fill="url(#paint2_linear_41_109)"/>
<circle cx="343" cy="100" r="100" fill="url(#paint3_linear_41_109)"/>
<circle cx="513" cy="339" r="100" fill="url(#paint4_linear_41_109)"/>
<circle cx="451" cy="164" r="50" fill="url(#paint5_linear_41_109)"/>
<circle cx="725" cy="464" r="50" fill="url(#paint6_linear_41_109)"/>
<circle cx="100" cy="475" r="125" fill="url(#paint7_linear_41_109)"/>
<circle cx="950" cy="475" r="125" fill="url(#paint8_linear_41_109)"/>
<circle cx="293" cy="314" r="150" fill="url(#paint9_linear_41_109)"/>
</g>
<defs>
<linearGradient id="paint0_linear_41_109" x1="600" y1="100" x2="600" y2="350" gradientUnits="userSpaceOnUse">
<stop stop-color="#0033B7"/>
<stop offset="1" stop-color="#650000"/>
</linearGradient>
<linearGradient id="paint1_linear_41_109" x1="0" y1="71" x2="0" y2="471" gradientUnits="userSpaceOnUse">
<stop stop-color="#0033B7"/>
<stop offset="1" stop-color="#650000"/>
</linearGradient>
<linearGradient id="paint2_linear_41_109" x1="850" y1="71" x2="850" y2="471" gradientUnits="userSpaceOnUse">
<stop stop-color="#0033B7"/>
<stop offset="1" stop-color="#650000"/>
</linearGradient>
<linearGradient id="paint3_linear_41_109" x1="343" y1="0" x2="343" y2="200" gradientUnits="userSpaceOnUse">
<stop stop-color="#0033B7"/>
<stop offset="1" stop-color="#650000"/>
</linearGradient>
<linearGradient id="paint4_linear_41_109" x1="513" y1="239" x2="513" y2="439" gradientUnits="userSpaceOnUse">
<stop stop-color="#0033B7"/>
<stop offset="1" stop-color="#650000"/>
</linearGradient>
<linearGradient id="paint5_linear_41_109" x1="451" y1="114" x2="451" y2="214" gradientUnits="userSpaceOnUse">
<stop stop-color="#0033B7"/>
<stop offset="1" stop-color="#650000"/>
</linearGradient>
<linearGradient id="paint6_linear_41_109" x1="725" y1="414" x2="725" y2="514" gradientUnits="userSpaceOnUse">
<stop stop-color="#0033B7"/>
<stop offset="1" stop-color="#650000"/>
</linearGradient>
<linearGradient id="paint7_linear_41_109" x1="100" y1="350" x2="100" y2="600" gradientUnits="userSpaceOnUse">
<stop stop-color="#0033B7"/>
<stop offset="1" stop-color="#650000"/>
</linearGradient>
<linearGradient id="paint8_linear_41_109" x1="950" y1="350" x2="950" y2="600" gradientUnits="userSpaceOnUse">
<stop stop-color="#0033B7"/>
<stop offset="1" stop-color="#650000"/>
</linearGradient>
<linearGradient id="paint9_linear_41_109" x1="293" y1="164" x2="293" y2="464" gradientUnits="userSpaceOnUse">
<stop stop-color="#0033B7"/>
<stop offset="1" stop-color="#650000"/>
</linearGradient>
<clipPath id="clip0_41_109">
<rect width="850" height="600" fill="white"/>
</clipPath>
</defs>
</svg>
